HIERARCHY
ROOT root
{
	OFFSET	0	13.1	24.9
	CHANNELS 6  Xposition Yposition Zposition Xrotation Yrotation Zrotation
	JOINT spine_1
	{
		OFFSET	0	9.99999	0
		CHANNELS 3  Xrotation Yrotation Zrotation
		JOINT spine_2
		{
			OFFSET	0	112	-10
			CHANNELS 3  Xrotation Yrotation Zrotation
			JOINT spine_3
			{
				OFFSET	0	206.5	19.3
				CHANNELS 3  Xrotation Yrotation Zrotation
				JOINT spine_4
				{
					OFFSET	0	110.4	14.6
					CHANNELS 3  Xrotation Yrotation Zrotation
					JOINT neck_1
					{
						OFFSET	0	71.8	-50.3
						CHANNELS 3  Xrotation Yrotation Zrotation
						JOINT neck_2
						{
							OFFSET	0	86.2	-25.8
							CHANNELS 3  Xrotation Yrotation Zrotation
							JOINT head_ee
							{
								OFFSET	0	179.8	-8.7
								CHANNELS 3  Xrotation Yrotation Zrotation
								End Site
								{
									OFFSET	1	0	0
								}
							}
						}
					}
					JOINT left_clavicle
					{
						OFFSET	-43.2	22.4	-70.8
						CHANNELS 3  Xrotation Yrotation Zrotation
						JOINT left_shoulder
						{
							OFFSET	-93.9	-5.79999	48.7
							CHANNELS 3  Xrotation Yrotation Zrotation
							JOINT left_elbow
							{
								OFFSET	-291.4	-30.8	15.2
								CHANNELS 3  Xrotation Yrotation Zrotation
								JOINT left_lowarm_twist
								{
									OFFSET	-110.7	-3.89999	13.6
									CHANNELS 3  Xrotation Yrotation Zrotation
									JOINT left_hand
									{
										OFFSET	-110.7	-3.89999	13.6
										CHANNELS 3  Xrotation Yrotation Zrotation
										JOINT left_ee
										{
											OFFSET	-80.8	-5.10001	12.1
											CHANNELS 3  Xrotation Yrotation Zrotation
											End Site
											{
												OFFSET	1	0	0
											}
										}
									}
								}
							}
						}
					}
					JOINT right_clavicle
					{
						OFFSET	43.2	22.4	-70.8
						CHANNELS 3  Xrotation Yrotation Zrotation
						JOINT right_shoulder
						{
							OFFSET	93.9	-5.79999	48.7
							CHANNELS 3  Xrotation Yrotation Zrotation
							JOINT right_elbow
							{
								OFFSET	291.4	-30.8	15.2
								CHANNELS 3  Xrotation Yrotation Zrotation
								JOINT right_lowarm_twist
								{
									OFFSET	110.7	-3.89999	13.6
									CHANNELS 3  Xrotation Yrotation Zrotation
									JOINT right_hand
									{
										OFFSET	110.7	-3.89999	13.6
										CHANNELS 3  Xrotation Yrotation Zrotation
										JOINT right_ee
										{
											OFFSET	80.8	-5.10001	12.1
											CHANNELS 3  Xrotation Yrotation Zrotation
											End Site
											{
												OFFSET	1	0	0
											}
										}
									}
								}
							}
						}
					}
				}
			}
		}
	}
	JOINT left_hip
	{
		OFFSET	-82.8	-127.5	0.300001
		CHANNELS 3  Xrotation Yrotation Zrotation
		JOINT left_knee
		{
			OFFSET	-28.2	-396.7	2.2
			CHANNELS 3  Xrotation Yrotation Zrotation
			JOINT left_ankle
			{
				OFFSET	-11.7	-411.3	35.4
				CHANNELS 3  Xrotation Yrotation Zrotation
				JOINT left_toes
				{
					OFFSET	0	-60	-88.6
					CHANNELS 3  Xrotation Yrotation Zrotation
					JOINT left_foot_ee
					{
						OFFSET	-22.5	-16.5	-42.2
						CHANNELS 3  Xrotation Yrotation Zrotation
						End Site
						{
							OFFSET	1	0	0
						}
					}
				}
			}
		}
	}
	JOINT right_hip
	{
		OFFSET	82.8	-127.5	0.300001
		CHANNELS 3  Xrotation Yrotation Zrotation
		JOINT right_knee
		{
			OFFSET	28.2	-396.7	2.2
			CHANNELS 3  Xrotation Yrotation Zrotation
			JOINT right_ankle
			{
				OFFSET	11.7	-411.3	35.4
				CHANNELS 3  Xrotation Yrotation Zrotation
				JOINT right_toes
				{
					OFFSET	0	-60	-88.6
					CHANNELS 3  Xrotation Yrotation Zrotation
					JOINT right_foot_ee
					{
						OFFSET	22.5	-16.5	-42.2
						CHANNELS 3  Xrotation Yrotation Zrotation
						End Site
						{
							OFFSET	1	0	0
						}
					}
				}
			}
		}
	}
}
MOTION
Frames: 13
Frame Time: 0.02
2498.24 757.776 -649.666 169.283 -61.9568 171.797 -0.246191 -0.447372 -2.54626 -0.242629 -0.284495 -2.56954 -0.227659 0.272219 -2.57087 -0.236856 -0.137079 -2.5816 -18.1027 13.4536 8.96353 -18.4119 21.0818 13.5862 -0.0 0.0 -0.0 8.49166 13.0813 15.816 -36.7281 -34.5886 64.2218 0.404845 -11.3404 0.0401963 -5.09332 -0.207062 0.617056 -0.97128 25.9986 4.82197 -0.0 0.0 -0.0 3.3135 17.1738 -5.06389 -3.27226 19.8969 -57.9267 1.34308 33.6351 -0.405967 -67.5086 6.22856 -5.27295 -1.7247 -1.65119 10.8346 0.0 0.0 0.0 21.5615 12.9047 -6.92284 -42.769 -0.652258 6.3815 -16.4696 -22.5505 2.89211 35.7816 -0.0 -0.0 -0.0 0.0 -0.0 4.19929 -11.6342 0.877697 -22.5489 -0.256661 -3.4285 29.0398 9.65899 3.93419 -22.6566 0.0 0.0 0.0 0.0 0.0 
2516.95 757.421 -635.079 167.369 -61.3332 171.15 -0.365481 -0.165386 -2.71064 -0.361394 0.00736951 -2.71566 -0.359563 0.595041 -2.64973 -0.36932 0.169259 -2.7104 -19.3477 13.494 11.1493 -19.5371 20.2673 15.8488 -0.0 0.0 -0.0 8.13315 13.8876 15.1219 -40.563 -35.4444 62.5369 0.488082 -13.5924 0.0581676 -5.33036 -0.21803 0.64531 -0.580362 24.002 6.21977 -0.0 0.0 -0.0 3.6001 16.611 -5.72663 -3.11208 19.1819 -57.3606 1.48906 36.4114 -0.489766 -66.5032 6.10081 -5.25719 -2.20731 -2.16455 13.877 0.0 0.0 0.0 23.4383 16.1038 -9.45125 -37.8481 -0.335572 5.69466 -20.6056 -27.2913 3.82937 34.4543 -0.0 -0.0 -0.0 0.0 -0.0 0.846782 -15.7481 -0.317232 -21.2021 -0.279414 -3.2231 24.9243 8.91256 3.44794 -24.1183 0.0 0.0 0.0 0.0 0.0 
2538.08 752.996 -623.012 165.934 -61.481 170.41 -0.356543 -0.204071 -2.66754 -0.352585 -0.0339768 -2.67512 -0.348833 0.545353 -2.6192 -0.358384 0.12501 -2.67241 -18.6369 13.2286 9.74351 -18.8866 20.3364 14.3129 -0.0 0.0 -0.0 8.04896 14.9976 14.8807 -43.3531 -35.7249 60.5618 0.533994 -14.817 0.0694346 -4.97197 -0.201493 0.602574 -0.210121 23.2586 8.06713 -0.0 0.0 -0.0 3.88794 16.6476 -6.33799 -2.16591 18.8495 -57.1699 1.67028 39.6014 -0.6014 -65.5655 5.9819 -5.24047 -2.52937 -3.51899 15.4228 0.0 0.0 0.0 23.9356 17.7229 -11.9441 -35.3414 -0.197294 5.33519 -20.9438 -28.6864 3.96355 33.5997 -0.0 -0.0 -0.0 0.0 -0.0 -1.08465 -15.8028 -1.14496 -21.7142 -0.271331 -3.30127 23.3399 8.48599 3.25074 -23.8931 0.0 0.0 0.0 0.0 0.0 
2552.98 751.961 -612.599 165.469 -61.3433 170.409 -0.274033 -0.170051 -2.75268 -0.269817 0.00538638 -2.75792 -0.267921 0.597954 -2.69237 -0.277998 0.165409 -2.75296 -18.9462 13.3165 9.91942 -19.2079 20.476 14.5773 -0.0 0.0 -0.0 7.78773 15.5571 14.3927 -45.1321 -35.8801 59.6695 0.580197 -16.0355 0.0817252 -5.95128 -0.247313 0.719106 -0.37455 22.3971 6.77689 -0.0 0.0 -0.0 4.14737 17.3072 -6.83575 -1.65166 18.6315 -56.9839 1.74915 40.9045 -0.652362 -65.1197 5.92546 -5.23183 -2.69828 -3.10809 16.7926 0.0 0.0 0.0 23.3128 18.1444 -12.7456 -29.8905 0.0482462 4.53515 -21.1588 -28.4932 3.99398 32.8462 -0.0 -0.0 -0.0 0.0 -0.0 -2.52104 -16.1617 -2.0406 -21.5817 -0.273489 -3.28105 23.1506 5.22478 3.18345 -23.5938 0.0 0.0 0.0 0.0 0.0 
2569.57 750.67 -603.118 166.669 -61.3487 172.063 -0.30262 -0.172481 -2.76354 -0.298371 0.00365124 -2.76891 -0.296342 0.599964 -2.70318 -0.3065 0.165689 -2.76395 -20.0416 13.5162 9.94517 -20.3931 21.0643 14.9406 -0.0 0.0 -0.0 7.30326 15.4766 13.5919 -46.4966 -36.0414 59.3345 0.663794 -18.2022 0.106337 -5.65016 -0.233012 0.683358 0.00390505 19.3739 7.85833 -0.0 0.0 -0.0 5.38756 17.6353 -9.47123 0.651989 16.1278 -55.9708 1.68568 39.8598 -0.611239 -63.8018 5.75899 -5.20372 -2.86742 -4.49947 17.2555 0.0 0.0 0.0 23.2619 17.3301 -13.4063 -25.2585 0.196285 3.83989 -20.8718 -28.4471 3.93739 33.0972 -0.0 -0.0 -0.0 0.0 -0.0 -3.34949 -14.3804 -2.8329 -21.7286 -0.271094 -3.30346 22.7999 9.5393 3.20148 -22.9313 0.0 0.0 0.0 0.0 0.0 
2587.21 748.013 -598.459 167.164 -61.4948 172.722 -0.268307 -0.288674 -2.71998 -0.264199 -0.115075 -2.73283 -0.25643 0.474238 -2.69385 -0.266554 0.0430084 -2.73491 -19.4511 13.1395 8.66632 -19.8341 20.8753 13.4864 -0.0 0.0 -0.0 8.19418 15.6566 15.0641 -48.4339 -35.7599 58.7015 0.563725 -15.6027 0.0772349 -4.2822 -0.170421 0.520039 0.208017 19.0349 8.96679 -0.0 0.0 -0.0 4.87605 18.4803 -8.30021 0.48464 17.8687 -56.3467 1.80681 41.8258 -0.690468 -62.517 5.59733 -5.17262 -2.70761 -4.51108 16.1488 0.0 0.0 0.0 23.0181 15.9027 -13.634 -15.5724 0.322088 2.36071 -20.9565 -26.3861 3.85095 32.1908 -0.0 -0.0 -0.0 0.0 -0.0 -4.77951 -14.8547 -2.67697 -20.1904 -0.293327 -3.06848 21.7794 10.6764 3.09369 -22.909 0.0 0.0 0.0 0.0 0.0 
2606.35 750.178 -591.467 167.732 -61.5268 173.752 -0.320322 -0.41569 -2.77365 -0.316073 -0.238423 -2.79446 -0.301837 0.369077 -2.78023 -0.312616 -0.074462 -2.80362 -19.335 13.1627 8.75993 -19.7055 20.852 13.5546 -0.0 0.0 -0.0 8.19672 15.4915 15.0842 -47.9764 -36.271 58.9167 0.568561 -15.7299 0.0785406 -4.39432 -0.175403 0.53348 0.197266 18.9483 8.8692 -0.0 0.0 -0.0 5.17264 18.2979 -8.95436 1.19295 18.7414 -57.0002 1.84867 42.4786 -0.718563 -63.4088 5.70948 -5.19459 -2.89021 -4.90199 17.2055 0.0 0.0 0.0 23.4043 16.2432 -14.3231 -10.1463 0.282956 1.5294 -20.4615 -24.7734 3.68838 30.9016 -0.0 -0.0 -0.0 0.0 -0.0 -5.80251 -17.272 -2.8321 -19.7668 -0.298341 -3.00368 16.6946 6.98525 2.38749 -24.5509 0.0 0.0 0.0 0.0 0.0 
2619.36 746.265 -583.409 167.619 -62.1348 173.67 -0.182396 -0.471983 -2.71502 -0.178344 -0.298329 -2.73953 -0.161646 0.291957 -2.74022 -0.172095 -0.144304 -2.75194 -18.0708 14.3512 8.50619 -18.518 23.0543 13.5466 -0.0 0.0 -0.0 8.16337 14.7923 15.0932 -49.336 -36.5905 57.685 0.640154 -17.5946 0.0990714 -3.65822 -0.143171 0.445064 0.741812 16.7086 11.4107 -0.0 0.0 -0.0 5.54919 18.4651 -9.75281 1.3129 19.1178 -55.7726 1.77082 41.2538 -0.6666 -61.3674 5.45328 -5.14171 -2.16707 -1.48631 13.9263 0.0 0.0 0.0 22.5019 16.8851 -12.6997 1.43196 -0.0616102 -0.211095 -19.3895 -19.3518 3.30267 28.2009 -0.0 -0.0 -0.0 0.0 -0.0 -5.85587 -10.5293 -3.71086 -21.8597 -0.268908 -3.32346 22.0602 8.50192 3.09398 -22.6475 0.0 0.0 0.0 0.0 0.0 
2640.91 742.924 -575.667 168.442 -62.7253 174.867 0.0178455 -0.566727 -2.65232 0.0216716 -0.396867 -2.68298 0.0424917 0.173867 -2.70657 0.0323603 -0.255608 -2.70009 -18.7433 14.4481 8.788 -19.2278 23.2152 14.0081 -0.0 0.0 -0.0 8.35981 14.8296 15.4239 -50.3668 -36.9376 56.7625 0.657556 -18.0423 0.104396 -3.43333 -0.133551 0.417971 0.736751 17.796 11.7651 -0.0 0.0 -0.0 5.84535 18.2148 -10.4126 0.950308 18.2495 -56.3636 1.84776 42.4645 -0.71795 -60.3001 5.3201 -5.11043 -2.27263 -2.27131 14.2729 0.0 0.0 0.0 23.3231 17.599 -13.3137 5.36033 -0.257552 -0.781748 -18.1632 -17.867 3.05124 27.8902 -0.0 -0.0 -0.0 0.0 -0.0 -6.66011 -15.2578 -3.31402 -22.0277 -0.266039 -3.34907 20.4692 11.6563 2.94413 -23.9652 0.0 0.0 0.0 0.0 0.0 
2663.02 737.943 -571.182 168.974 -62.5088 175.863 0.0687203 -0.592752 -2.60824 0.0724042 -0.425641 -2.64064 0.09417 0.134416 -2.67132 0.0843286 -0.289004 -2.65905 -18.5056 14.745 8.31347 -19.0524 23.9953 13.6542 -0.0 0.0 -0.0 8.57524 14.5368 15.8212 -51.3755 -37.2673 56.5306 0.679786 -18.6108 0.111386 -3.26056 -0.126233 0.397132 0.888861 17.5287 12.6189 -0.0 0.0 -0.0 5.95353 17.7336 -10.6839 0.850755 17.6757 -56.2851 1.86569 42.7401 -0.730086 -59.258 5.19062 -5.07748 -2.15254 -1.53438 13.8037 0.0 0.0 0.0 23.3611 18.3769 -13.3243 8.60827 -0.448868 -1.24275 -16.7823 -15.3619 2.75941 27.5074 -0.0 -0.0 -0.0 0.0 -0.0 -6.68103 -14.3361 -3.09115 -23.0228 -0.247507 -3.50064 22.5416 13.4084 3.2412 -23.6927 0.0 0.0 0.0 0.0 0.0 
2689.2 733.446 -566.625 169.826 -62.5014 176.993 0.292752 -0.578466 -2.83926 0.29715 -0.396701 -2.87028 0.319199 0.199322 -2.89068 0.307633 -0.259515 -2.88591 -16.2286 15.4378 8.19124 -16.6823 24.9763 13.2503 -0.0 0.0 -0.0 8.65513 14.4601 15.9662 -51.8086 -37.5506 56.4856 0.686815 -18.7898 0.11364 -3.17602 -0.122675 0.386927 1.10069 17.4596 13.9232 -0.0 0.0 -0.0 6.09223 16.8324 -11.0511 -0.355822 16.8499 -55.9329 1.88054 42.9664 -0.740183 -59.4518 5.21465 -5.08379 -2.45215 -2.0421 15.6193 0.0 0.0 0.0 25.5209 18.4824 -13.7566 7.60929 -0.387237 -1.1021 -14.9943 -14.8189 2.45188 26.6801 -0.0 -0.0 -0.0 0.0 -0.0 -7.75418 -11.8389 -3.10585 -23.521 -0.237241 -3.5764 25.4808 14.949 3.63953 -22.7094 0.0 0.0 0.0 0.0 0.0 
2712.31 728.706 -560.997 170.1 -60.3333 177.885 0.253508 -0.429817 -2.96738 0.258374 -0.240211 -2.98869 0.273105 0.379364 -2.97424 0.260774 -0.0949045 -2.99682 -15.6621 15.9518 8.13098 -16.1279 25.8892 13.2509 -0.0 0.0 -0.0 8.75238 14.0941 16.1717 -51.0603 -37.9449 57.483 0.628754 -17.3002 0.0956532 -2.16945 -0.0814733 0.265032 1.19222 17.9051 14.6488 -0.0 0.0 -0.0 6.32412 16.2357 -11.5938 -0.980324 16.5474 -55.8639 1.87811 42.9295 -0.738529 -59.33 5.19954 -5.07983 -2.31235 -0.522634 15.3894 0.0 0.0 0.0 27.5596 18.9428 -14.9289 5.59693 -0.270601 -0.815683 -12.1022 -9.58541 1.90534 25.6516 -0.0 -0.0 -0.0 0.0 -0.0 -8.84021 -10.0489 -2.94604 -23.7294 -0.232749 -3.60808 24.0057 17.7887 3.53226 -22.5618 0.0 0.0 0.0 0.0 0.0 
2734.8 723.857 -556.392 171.267 -60.5749 179.02 0.433443 -0.505654 -3.09645 0.438724 -0.307693 -3.12231 0.457704 0.330675 -3.11996 0.444159 -0.165966 -3.13303 -15.078 16.2691 7.75369 -15.5556 26.6025 12.876 -0.0 0.0 -0.0 8.7611 13.7518 16.2218 -51.524 -38.0751 56.2608 0.751143 -20.4099 0.135221 -1.60603 -0.0593487 0.196496 1.28936 17.9741 15.2837 -0.0 0.0 -0.0 6.38861 16.4555 -11.7174 -1.66095 16.3202 -55.0935 1.87998 42.958 -0.739803 -59.1883 5.18198 -5.07519 -2.42417 -1.19998 15.8367 0.0 0.0 0.0 28.679 18.8625 -14.0501 8.2534 -0.426693 -1.19291 -14.3994 -7.2851 2.24444 24.6714 -0.0 -0.0 -0.0 0.0 -0.0 -9.55057 -8.55329 -2.99718 -22.6849 -0.254096 -3.44921 23.4378 18.7894 3.4884 -22.5016 0.0 0.0 0.0 0.0 0.0 
